<svg width="496" height="246" viewBox="0 0 496 246" fill="none" xmlns="http://www.w3.org/2000/svg">
<g clip-path="url(#clip0_2_40)">
<path d="M493.143 96.6281C477.876 59.9492 447.459 31.0916 410.972 15.8969C390.418 7.3429 368.155 3.03791 345.929 2.67662C323.778 2.32042 300.956 5.63312 280.265 13.7393C270.463 17.5812 261.104 22.6241 252.959 29.3411C244.891 35.9919 238.409 44.3017 233.127 53.2882C222.685 71.0476 216.808 91.0561 206.289 108.785C201.246 117.288 195.216 125.298 187.672 131.75C179.355 138.864 169.497 143.311 158.836 145.576C147.494 147.983 135.847 148.257 124.347 149.433C114.444 150.446 104.738 152.339 95.3484 155.687C61.0576 167.93 30.9762 196.722 21.3727 232.418C20.2797 236.484 19.5018 240.616 18.9782 244.789C18.7748 246.407 21.3168 246.397 21.5201 244.789C26.1007 208.252 53.7673 177.258 86.355 162.104C94.8807 158.14 103.91 155.224 113.157 153.514C124.154 151.484 135.379 151.229 146.477 150.018C157.128 148.858 167.779 146.797 177.362 141.805C185.725 137.449 192.929 131.119 198.902 123.857C211.358 108.714 218.186 90.3996 226.142 72.7319C230.341 63.4095 234.952 54.1991 240.977 45.9046C247.281 37.2234 255.171 29.967 264.322 24.3797C282.919 13.032 305.217 7.78052 326.732 5.9079C348.247 4.03529 371.384 5.98423 392.751 12.1822C431.15 23.3161 465.115 48.8967 484.414 84.1966C486.742 88.4507 488.842 92.8269 490.703 97.3049C491.323 98.7959 493.783 98.1395 493.153 96.6281H493.143Z" fill="#FBE8D3"/>
<path d="M493.326 88.6237C477.159 54.0057 445.969 27.901 409.991 15.8002C389.681 8.97126 368.038 6.41168 346.671 7.19533C324.647 7.99933 302.41 12.1059 281.673 19.6014C272.141 23.0464 262.848 27.3412 254.403 32.9795C245.959 38.6177 238.653 45.6603 232.415 53.6597C219.263 70.5132 211.058 90.5523 198.206 107.609C191.724 116.214 184.088 124.092 174.998 129.943C165.806 135.862 155.481 139.149 144.789 141.088C134.256 143.001 123.564 143.769 112.99 145.423C103.788 146.863 94.8197 149.189 86.1975 152.73C54.9163 165.574 27.6056 192.529 19.0392 225.859C18.0326 229.772 17.331 233.747 16.8786 237.761C16.6955 239.385 19.2375 239.375 19.4205 237.761C23.2792 203.586 48.4038 174.489 78.231 159.183C86.0704 155.163 94.3622 152.038 102.923 149.962C113.076 147.499 123.523 146.604 133.864 145.281C143.971 143.988 154.134 142.329 163.661 138.584C172.934 134.94 181.261 129.353 188.46 122.483C203.569 108.072 212.68 89.3158 223.3 71.6633C228.674 62.7327 234.586 54.0922 241.892 46.6272C249.03 39.3301 257.398 33.5138 266.467 28.8831C285.649 19.0875 307.449 13.7749 328.73 11.1696C350.148 8.54891 372.065 9.06286 393.163 13.7648C430.819 22.1508 465.039 44.8767 484.978 78.2734C487.23 82.0441 489.274 85.9267 491.13 89.906C491.821 91.3868 494.012 90.0994 493.326 88.6237Z" fill="#FBEAD6"/>
<path d="M493.641 80.9297C476.788 48.566 445.588 25.1786 410.591 15.7748C368.857 4.56451 323.315 11.7293 283.087 25.5399C263.961 32.1042 245.979 41.1925 231.51 55.573C216.787 70.213 206.243 88.3387 192.263 103.62C185.237 111.299 177.408 118.28 168.49 123.7C159.573 129.119 149.461 132.671 139.131 134.961C119.797 139.245 99.8528 140.258 81.3983 147.988C51.1847 160.648 24.5857 186.88 16.7006 219.356C15.7906 223.101 15.1704 226.902 14.7942 230.734C14.6315 232.362 17.1734 232.352 17.3361 230.734C20.6457 197.317 45.3128 168.983 74.3418 154.058C81.8151 150.217 89.7104 147.209 97.865 145.158C107.88 142.645 118.145 141.332 128.312 139.612C138.404 137.902 148.521 135.795 158.007 131.857C166.792 128.208 174.845 123.094 182.115 116.973C197.611 103.925 208.491 86.9139 221.022 71.2358C227.321 63.3535 234.159 55.8732 242.029 49.5328C249.858 43.228 258.684 38.2716 267.845 34.1855C287.428 25.4534 308.75 19.805 329.843 16.2175C350.819 12.6504 372.461 11.5868 393.554 14.8079C430.118 20.3851 464.302 40.073 484.963 71.1799C487.327 74.7368 489.482 78.4159 491.45 82.2018C492.207 83.6521 494.399 82.3698 493.646 80.9195L493.641 80.9297Z" fill="#FBEBDA"/>
<path d="M493.951 73.2306C476.198 42.4952 444.454 21.5911 409.879 14.9148C368.354 6.8951 325.268 17.8967 285.964 31.0102C266.676 37.4473 247.743 45.1871 231.505 57.6695C215.715 69.8008 202.969 85.1889 188.241 98.4957C180.661 105.345 172.558 111.629 163.701 116.744C154.596 122 144.85 125.71 134.698 128.356C115.587 133.332 95.5722 135.083 77.2447 142.808C47.8852 155.188 21.7743 180.794 14.423 212.532C13.5689 216.211 13.0097 219.951 12.6945 223.717C12.5572 225.35 15.0992 225.34 15.2365 223.717C17.9716 191.017 42.2065 163.386 70.4425 148.787C87.3007 140.07 105.852 137.276 124.21 133.404C133.981 131.343 143.696 128.875 152.908 124.967C161.947 121.135 170.387 116.041 178.206 110.123C193.717 98.3939 206.315 83.5961 220.483 70.386C227.692 63.6639 235.369 57.4507 243.763 52.2603C252.156 47.0699 261.5 42.77 270.855 39.1214C290.341 31.5292 310.651 25.4585 331.053 20.899C351.455 16.3396 371.8 13.7495 392.395 15.1947C428.435 17.7288 463.29 34.6638 484.958 64.0812C487.423 67.4295 489.681 70.9152 491.76 74.5129C492.579 75.9276 494.775 74.6503 493.956 73.2306H493.951Z" fill="#FBEDDD"/>
<path d="M494.261 65.5366C475.888 36.74 444.276 18.2987 410.697 13.8767C369.675 8.47258 328.77 22.8276 290.529 35.8698C271.277 42.4341 251.81 48.9883 234.093 59.1605C216.706 69.1444 201.459 82.1866 185.216 93.8396C168.714 105.676 151.139 115.487 131.571 121.201C112.298 126.824 92.0083 129.429 73.4267 137.286C44.7637 149.402 18.9375 174.525 12.1352 205.693C11.3422 209.316 10.8388 213 10.5948 216.7C10.4881 218.333 13.03 218.328 13.1368 216.7C15.272 184.565 39.2527 157.432 66.8735 143.154C83.7216 134.447 102.562 131.205 120.803 126.702C130.483 124.315 140.051 121.537 149.243 117.644C158.333 113.797 167.001 109.029 175.298 103.686C191.51 93.2493 206.111 80.5837 222.039 69.7398C238.521 58.5193 256.386 50.576 275.11 43.8997C294.591 36.9486 314.246 30.2061 334.175 24.6595C353.249 19.347 372.888 15.3219 392.766 15.2914C427.698 15.2405 462.207 29.4276 484.704 56.662C487.373 59.8933 489.813 63.2925 492.07 66.824C492.95 68.1979 495.151 66.9258 494.266 65.5416L494.261 65.5366Z" fill="#FBEFE1"/>
<path d="M494.571 57.8375C475.359 30.4809 443.183 14.1108 410.097 12.1466C369.899 9.76 331.643 27.0614 294.764 40.6124C275.644 47.6398 256.091 53.6444 237.382 61.7557C218.674 69.867 201.414 80.1155 183.646 89.7381C165.923 99.3302 147.763 108.134 128.424 113.975C109.217 119.776 89.2376 123.364 70.6458 131.078C42.1861 142.889 16.182 167.757 9.84241 198.818C9.11541 202.395 8.67311 206.019 8.50534 209.662C8.42909 211.301 10.971 211.296 11.0473 209.662C12.547 177.787 36.6498 150.873 63.9757 136.935C81.0424 128.229 100.183 124.392 118.546 119.425C137.311 114.352 155.166 107.33 172.481 98.5008C189.721 89.7076 206.284 79.6524 223.595 71.0018C241.495 62.0508 260.275 55.512 279.131 48.912C298.201 42.2408 316.971 34.7249 336.066 28.13C354.327 21.8201 373.127 16.3803 392.466 14.8792C426.579 12.2331 461.379 23.9624 484.724 49.543C487.484 52.5707 490.032 55.7664 492.385 59.1198C493.321 60.4479 495.522 59.1809 494.582 57.8375H494.571Z" fill="#FBF0E4"/>
<path d="M494.887 50.1434C474.551 23.7588 441.185 9.35291 408.166 10.0755C369.081 10.9304 333.676 30.7405 298.364 45.2431C279.487 52.9931 260.041 58.962 240.717 65.4551C221.734 71.8363 203.112 79.2148 184.408 86.3491C165.582 93.5292 146.665 100.546 127.341 106.286C108.053 112.016 88.2717 116.24 69.5883 123.863C40.6203 135.678 13.5079 159.951 7.52415 191.938C6.86325 195.475 6.49721 199.052 6.4057 202.645C6.36502 204.283 8.90697 204.283 8.94764 202.645C9.7509 170.581 34.5654 143.439 62.115 129.943C79.507 121.425 98.6021 116.901 117.189 111.813C136.269 106.587 154.916 100.104 173.442 93.1831C191.505 86.4356 209.411 79.2708 227.55 72.737C246.04 66.076 264.932 60.5955 283.381 53.8123C301.831 47.0292 319.441 38.8009 337.438 31.2137C354.408 24.0591 371.831 17.4693 390.057 14.3754C423.819 8.65068 459.782 17.7492 484.485 42.1594C487.423 45.065 490.169 48.1589 492.69 51.4309C493.677 52.7081 495.883 51.441 494.887 50.1485V50.1434Z" fill="#FBF2E8"/>
<path d="M494.998 42.1848C473.605 16.8332 438.918 4.55433 406.254 7.84668C368.226 11.6784 335.405 33.7071 301.587 49.5582C283.041 58.2496 263.773 64.5901 244.032 69.9535C224.596 75.2355 205.054 80.1359 185.466 84.8174C165.908 89.4888 146.34 94.1194 126.828 98.9943C107.316 103.869 87.9616 108.317 69.4562 115.787C53.5436 122.209 38.8664 131.022 27.0362 143.596C16.3092 154.995 7.91057 169.167 5.22628 184.743C4.60604 188.336 4.30609 191.964 4.30609 195.607C4.30609 197.246 6.84804 197.246 6.84804 195.607C6.83787 162.297 33.447 135.21 61.8609 121.842C79.3952 113.594 98.2666 108.8 116.986 104.083C136.101 99.264 155.242 94.5316 174.439 90.0383C193.635 85.5451 212.466 80.9348 231.373 75.9581C250.509 70.9254 269.69 65.8063 288.033 58.2853C322.151 44.2966 353.305 22.273 389.406 13.3424C422.548 5.13952 459.289 12.0702 484.958 35.3966C487.896 38.0681 490.642 40.9381 493.209 43.976C494.266 45.2278 496.056 43.4213 495.009 42.1746L494.998 42.1848Z" fill="#FBF4EB"/>
<path d="M495.309 34.4908C472.939 10.2231 437.683 0.0712397 405.502 5.26674C368.501 11.2408 338.018 35.1828 305.918 52.7234C288.155 62.4274 269.579 69.6584 249.904 74.4213C229.695 79.3115 209.08 82.2629 188.455 84.7055C167.835 87.148 147.174 89.2293 126.686 92.6794C106.197 96.1295 87.5904 100.175 69.1207 107.391C52.7353 113.792 37.3158 122.667 25.0738 135.465C14.0316 147.011 5.35336 161.549 2.89783 177.522C2.33352 181.186 2.10475 184.88 2.21659 188.585C2.26743 190.218 4.80938 190.223 4.75854 188.585C3.72651 153.896 32.3539 126.677 61.6524 113.283C79.2325 105.248 98.1954 100.607 117.113 96.9742C137.27 93.1017 157.652 90.7711 178.028 88.4507C217.042 84.0083 257.138 79.1283 293.031 62.1679C325.69 46.734 354.383 22.8327 389.101 11.8158C421.348 1.58256 458.425 6.27938 484.973 28.1809C488.008 30.6845 490.85 33.3967 493.519 36.2871C494.632 37.4931 496.427 35.6917 495.319 34.4857L495.309 34.4908Z" fill="#FBF5EF"/>
<path d="M495.624 26.7916C471.125 2.42724 433.056 -5.26678 400.184 3.49076C366.157 12.5536 339.147 36.4804 310.097 55.0845C294.174 65.2821 277.438 73.5817 259.096 78.4311C238.928 83.7589 218.018 85.5145 197.23 86.1048C155.455 87.2955 112.608 84.2423 72.3133 97.5949C39.5425 108.459 5.8058 133.042 0.584635 169.635C0.0203231 173.594 -0.137278 177.573 0.116917 181.568C0.223679 183.196 2.76563 183.206 2.65886 181.568C0.269434 144.339 32.964 115.639 64.6214 103.091C103.086 87.8451 144.977 89.4277 185.588 88.8883C205.852 88.6186 226.188 87.7077 246.142 83.9523C264.596 80.4768 282.156 74.2432 298.531 65.0378C328.328 48.2911 353.915 24.1455 385.776 11.0576C402.029 4.38127 419.386 1.323 436.93 2.98699C453.865 4.58991 470.57 10.4418 484.363 20.4868C487.729 22.9344 490.875 25.6569 493.824 28.593C494.988 29.7481 496.783 27.9518 495.624 26.7916Z" fill="#FBF7F2"/>
</g>
<defs>
<clipPath id="clip0_2_40">
<rect width="496" height="246" fill="white"/>
</clipPath>
</defs>
</svg>
