<svg width="96" height="97" viewBox="0 0 96 97" fill="none" xmlns="http://www.w3.org/2000/svg">
<g clip-path="url(#clip0_2_53)">
<path d="M47.67 58.9141C42.5725 61.4689 40.2776 64.8343 39.2875 66.6195C34.6418 75.0175 37.348 87.3708 46.4616 96.9949C56.1642 87.9762 59.6471 75.823 55.5447 67.1428C54.6715 65.296 52.5949 61.787 47.67 58.9141Z" fill="white"/>
<path d="M40.4756 55.6308C35.0836 53.7943 31.1081 54.533 29.1585 55.0922C19.9992 57.7137 13.2668 68.3791 12.9723 81.702C26.1477 82.2561 37.1145 76.1512 40.2826 67.0812C40.9579 65.1523 41.9429 61.1867 40.4756 55.636V55.6308Z" fill="white"/>
<path d="M37.6932 48.1665C35.1647 43.0159 31.8341 40.6971 30.0672 39.6967C21.7558 35.0027 9.52986 37.737 0.00500488 46.9456C8.93075 56.7492 20.9587 60.2685 29.5493 56.1233C31.3771 55.241 34.8499 53.1427 37.6932 48.1665Z" fill="white"/>
<path d="M40.9427 40.8972C42.7603 35.449 42.0292 31.4322 41.4758 29.4622C38.8813 20.2075 28.3258 13.405 15.1403 13.1074C14.5919 26.42 20.6338 37.5011 29.6103 40.7022C31.5194 41.3846 35.444 42.3798 40.9376 40.8972H40.9427Z" fill="white"/>
<path d="M48.33 38.0859C53.4275 35.5311 55.7224 32.1657 56.7125 30.3805C61.3581 21.9825 58.652 9.6292 49.5384 0.00512695C39.8358 9.02385 36.3529 21.1771 40.4552 29.8572C41.3285 31.704 43.4051 35.213 48.33 38.0859Z" fill="white"/>
<path d="M55.5193 41.3692C60.9114 43.2057 64.8868 42.467 66.8365 41.9078C75.9958 39.2863 82.7282 28.6208 83.0226 15.298C69.8473 14.7439 58.8805 20.8487 55.7123 29.9188C55.037 31.8477 54.052 35.8133 55.5193 41.364V41.3692Z" fill="white"/>
<path d="M58.3068 48.8335C60.8352 53.9841 64.1659 56.3029 65.9327 57.3033C74.2441 61.9973 86.4701 59.263 95.9949 50.0544C87.0692 40.2508 75.0413 36.7316 66.4506 40.8767C64.6228 41.7591 61.15 43.8573 58.3068 48.8335Z" fill="white"/>
<path d="M55.0573 56.0977C53.2397 61.5458 53.9708 65.5627 54.5242 67.5327C57.1187 76.7874 67.6742 83.5899 80.8597 83.8874C81.4081 70.5748 75.3662 59.4938 66.3897 56.2926C64.4807 55.6103 60.556 54.6151 55.0624 56.0977H55.0573Z" fill="white"/>
</g>
<defs>
<clipPath id="clip0_2_53">
<rect width="96" height="97" fill="white"/>
</clipPath>
</defs>
</svg>
