<svg width="483" height="232" viewBox="0 0 483 232" fill="none" xmlns="http://www.w3.org/2000/svg">
<g clip-path="url(#clip0_2_27)">
<path d="M51.5012 231.095C59.821 200.142 77.061 171.859 100.596 150.237C125.596 127.264 157.623 112.583 191.162 108.076C208.839 105.703 226.405 106.583 243.986 109.289C261.786 112.031 279.804 115.918 297.909 114.547C306.397 113.908 314.732 112.025 322.533 108.567C329.509 105.473 335.9 101.232 341.92 96.5516C354.438 86.812 365.388 75.1286 378.446 66.0796C405.008 47.6747 440.389 43.9866 470.335 55.9053C474.029 57.3734 477.611 59.1126 481.087 61.0462C482.522 61.8442 483.804 59.6343 482.369 58.8363C454.28 43.2091 418.956 42.4315 390.042 56.3452C360.951 70.3458 342.714 102.076 310.432 110.025C292.052 114.552 272.879 111.386 254.524 108.404C236.653 105.498 218.955 103.145 200.815 104.511C166.787 107.074 133.681 119.888 107.022 141.346C82.0936 161.414 63.0013 188.709 52.524 219.028C51.2264 222.782 50.0713 226.578 49.0435 230.414C48.616 232.005 51.0687 232.685 51.4961 231.095H51.5012Z" fill="#FDE1C3"/>
<path d="M474.848 52.8566C447.467 37.7817 413.124 37.7459 385.28 51.6749C356.514 66.0592 338.592 97.3444 306.595 105.882C288.958 110.588 270.421 108.532 252.56 106.429C243.426 105.355 234.282 104.153 225.092 103.733C216.33 103.334 207.542 103.677 198.83 104.69C165.078 108.619 132.592 122.343 105.343 142.615C80.6942 160.953 59.9533 185.077 47.6645 213.483C46.1837 216.905 44.8251 220.378 43.5885 223.897C43.0441 225.452 45.4967 226.123 46.0412 224.578C56.315 195.369 75.5243 170.105 99.2674 150.58C124.99 129.423 156.218 114.501 188.994 108.695C206.478 105.595 223.901 105.749 241.497 107.703C259.185 109.667 277.102 112.634 294.927 110.624C303.201 109.693 311.292 107.652 318.874 104.153C325.682 101.017 331.906 96.792 337.793 92.1626C350.158 82.4384 360.951 70.8113 373.759 61.6395C399.263 43.3728 433.463 38.7536 462.778 50.0227C466.488 51.4498 470.075 53.1481 473.556 55.0612C474.991 55.8541 476.278 53.6443 474.838 52.8514L474.848 52.8566Z" fill="#FDE4CA"/>
<path d="M467.322 46.8767C440.226 32.1242 406.239 33.1217 379.27 47.6799C351.344 62.7547 333.768 93.0169 302.285 102.04C285.249 106.92 267.261 105.902 249.802 104.624C240.856 103.969 231.89 103.089 222.914 103.058C214.106 103.022 205.303 103.739 196.596 105.058C163.841 110.015 131.844 123.433 104.219 141.664C79.2033 158.171 57.1444 179.916 43.156 206.73C41.3903 210.117 39.767 213.57 38.271 217.084C37.6298 218.583 39.823 219.887 40.4692 218.373C52.4121 190.402 72.9952 167.215 97.3847 149.495C123.453 130.563 153.985 116.542 185.432 109.713C202.886 105.923 220.36 105.063 238.139 106.322C255.43 107.544 272.904 109.473 290.19 107.14C298.255 106.051 306.153 103.974 313.582 100.613C320.472 97.4979 326.776 93.2675 332.715 88.5973C344.958 78.9753 355.573 67.4301 368.009 58.0435C392.729 39.393 426.049 33.357 455.308 44.1912C459.002 45.557 462.575 47.2092 466.035 49.0917C467.475 49.8743 468.762 47.6696 467.317 46.8819L467.322 46.8767Z" fill="#FDE7D0"/>
<path d="M459.796 40.9021C432.903 26.4462 399.141 28.5946 373.067 43.9099C359.557 51.8488 348.499 63.2355 336.979 73.7168C324.853 84.7557 311.964 94.4185 296.026 99.0223C280.089 103.626 261.959 103.647 244.866 103.058C235.981 102.751 227.117 102.255 218.228 102.7C209.404 103.145 200.621 104.265 191.94 105.907C174.451 109.212 157.414 114.655 140.856 121.151C127.27 126.481 114.029 132.748 101.456 140.185C76.1909 155.137 53.4247 175.113 38.2456 200.566C36.3017 203.825 34.5004 207.16 32.8161 210.557C32.0884 212.025 34.2816 213.324 35.0143 211.846C48.2547 185.118 69.6572 163.69 94.418 147.561C106.61 139.623 119.561 132.891 132.913 127.151C148.464 120.471 164.589 114.88 181.03 110.88C198.438 106.644 216.202 104.526 234.119 105.207C250.789 105.836 267.602 106.762 284.165 104.214C299.98 101.779 314.213 95.5336 326.843 85.702C339.06 76.1926 349.588 64.719 361.643 55.0203C373.8 45.2347 387.691 38.3086 403.039 35.3264C417.979 32.4209 433.712 33.2905 448.077 38.4416C451.675 39.7307 455.15 41.3011 458.514 43.1119C459.959 43.8894 461.246 41.6796 459.796 40.9021Z" fill="#FDEBD7"/>
<path d="M452.27 34.9223C425.55 20.7579 392.057 24.1903 366.92 40.2371C353.608 48.7336 342.668 60.3505 331.086 70.9648C325.189 76.3717 319.077 81.5893 312.361 85.9526C305.644 90.316 297.828 93.9377 289.895 96.3623C274.023 101.212 257.287 101.999 240.8 101.953C231.778 101.928 222.823 101.872 213.821 102.7C204.906 103.524 196.041 104.905 187.269 106.69C170.629 110.076 154.147 114.726 138.098 120.297C124.435 125.039 111.063 130.707 98.3006 137.535C72.7001 151.239 49.4251 169.972 33.2333 194.392C31.1521 197.533 29.2032 200.751 27.3662 204.04C26.5623 205.477 28.7605 206.766 29.5645 205.329C43.9346 179.588 65.9578 159.398 91.1054 144.518C117.408 128.952 146.708 118.967 176.267 111.77C193.726 107.519 211.577 104.618 229.565 104.434C245.935 104.265 262.203 104.777 278.395 101.779C293.986 98.8944 308.366 92.6844 320.94 82.95C333.208 73.4559 343.701 61.9209 355.542 51.9256C367.51 41.8177 380.959 34.2317 396.286 30.7226C410.875 27.3823 426.395 27.7557 440.607 32.6152C444.19 33.8378 447.645 35.3571 450.988 37.1321C452.433 37.8994 453.72 35.6947 452.27 34.9223Z" fill="#FDEEDE"/>
<path d="M444.749 28.9425C417.785 14.8651 384.231 20.1236 359.923 37.3162C346.942 46.4982 336.129 58.2634 324.466 68.98C312.371 80.0905 299.146 89.1446 283.473 94.3213C267.999 99.4315 251.695 100.971 235.488 101.176C217.23 101.406 199.09 103.785 181.168 107.197C151.288 112.885 121.708 120.568 94.3163 134.129C68.553 146.886 45.0744 164.734 28.1143 188.228C25.9364 191.246 23.8755 194.351 21.9215 197.523C21.0564 198.924 23.2598 200.213 24.1197 198.812C39.3956 174.008 61.7445 154.728 87.06 140.799C113.032 126.507 141.334 118.148 170.166 112.025C187.798 108.276 205.623 105.248 223.632 104.158C232.089 103.647 240.561 103.81 249.013 103.227C256.834 102.69 264.645 101.698 272.309 100.015C287.503 96.6846 301.853 90.4183 314.264 80.9499C326.649 71.5019 337.147 59.8952 348.759 49.5572C360.539 39.0708 373.535 30.6152 388.831 26.4053C403.237 22.4409 418.772 22.18 433.066 26.7787C436.659 27.9347 440.124 29.4079 443.472 31.1523C444.922 31.9093 446.21 29.7046 444.755 28.9425H444.749Z" fill="#FDF1E4"/>
<path d="M437.223 22.9678C409.822 8.90576 376.598 16.4713 352.993 34.5846C340.348 44.2884 329.672 56.1969 318.009 67.0055C306.153 77.9932 292.978 87.0575 277.774 92.6946C270.4 95.4313 262.752 97.4058 254.997 98.6898C246.53 100.091 238.032 100.352 229.483 100.818C211.175 101.82 192.948 103.918 174.797 106.465C145.563 110.568 116.92 117.248 90.047 129.827C64.0547 141.991 40.3369 159.393 22.7153 182.294C20.5323 185.128 18.4562 188.034 16.4666 191.011C15.5506 192.382 17.754 193.661 18.6648 192.3C34.7395 168.268 57.3225 149.572 82.7754 136.272C108.06 123.054 135.854 114.982 163.953 110.614C181.58 107.877 199.324 105.636 217.108 104.214C233.722 102.884 250.331 103.038 266.594 98.8637C281.514 95.0323 295.635 88.3364 307.898 78.9549C320.299 69.4609 330.781 57.7928 342.185 47.1683C353.634 36.5029 366.121 27.2902 381.092 22.3539C395.36 17.6478 411.028 16.6145 425.515 20.9626C429.117 22.0419 432.593 23.4588 435.941 25.1776C437.396 25.9244 438.684 23.7197 437.223 22.9678Z" fill="#FDF4EB"/>
<path d="M429.698 16.988C416.34 10.2664 401.115 9.04387 386.572 11.9596C372.029 14.8753 357.954 22.2925 346.113 32.0014C333.539 42.3139 322.838 54.652 310.997 65.7625C299.37 76.6786 286.302 85.968 271.5 92.0143C264.309 94.9556 256.799 97.1245 249.151 98.4596C240.475 99.9737 231.6 100.235 222.823 100.726C204.972 101.718 187.06 102.209 169.24 103.667C140.5 106.015 112.004 112.767 85.6708 124.681C59.5615 136.492 35.6809 153.659 17.4843 176.003C15.2351 178.765 13.0827 181.594 11.0015 184.489C10.0397 185.824 12.2482 187.103 13.1997 185.778C30.0072 162.365 52.7886 143.976 78.3535 131.008C103.99 118.005 132.201 110.276 160.681 107.053C177.234 105.181 193.955 104.762 210.579 103.923C227.265 103.084 244.362 103.053 260.559 98.4749C275.245 94.3213 288.918 87.0729 300.983 77.7272C313.45 68.0644 323.973 56.2378 335.239 45.2603C346.561 34.2317 358.829 24.0982 373.708 18.3742C387.697 12.9878 403.364 11.1412 417.948 15.1567C421.566 16.1542 425.052 17.5097 428.405 19.1978C429.865 19.9344 431.153 17.7297 429.687 16.988H429.698Z" fill="#FDF8F2"/>
<path d="M422.172 11.0133C408.773 4.41452 393.472 3.85184 379.143 7.46836C364.014 11.2895 350.794 19.4996 339.126 29.72C326.843 40.4775 316.258 52.9844 304.57 64.3558C293.289 75.3384 280.695 85.1393 266.319 91.6716C234.786 106 199.318 97.59 165.999 99.0018C137.075 100.229 108.34 106.741 81.8544 118.527C55.3482 130.323 31.1419 147.587 12.2024 169.731C9.90742 172.412 7.70408 175.169 5.5618 177.972C4.56445 179.276 6.77288 180.55 7.76006 179.261C25.3512 156.217 48.4532 137.868 74.2623 124.931C100.132 111.964 128.639 104.352 157.43 102.076C173.357 100.818 189.202 101.744 205.13 102.306C221.952 102.905 239.447 103.324 255.73 98.3829C270.044 94.04 283.03 86.1726 294.586 76.74C306.941 66.6526 317.454 54.6009 328.613 43.2602C339.656 32.0423 351.548 21.3718 365.979 14.7884C379.631 8.56304 395.446 5.72404 410.198 9.32522C413.903 10.2306 417.475 11.5299 420.894 13.218C422.36 13.9392 423.652 11.7345 422.177 11.0082L422.172 11.0133Z" fill="#FDFBF8"/>
<path d="M414.646 5.03374C401.059 -1.49852 385.565 -1.20695 371.388 3.24338C356.29 7.99039 343.34 17.1621 331.855 27.9043C308.453 49.7979 290.063 78.5101 260.249 92.4596C253.028 95.8408 245.263 98.1018 237.32 98.8281C227.87 99.6875 218.375 98.6287 209.028 97.2322C200.525 95.9636 192.052 94.4597 183.488 93.6617C176.262 92.9916 169.001 92.7256 161.75 92.8483C132.791 93.3394 104.035 100.02 77.6259 111.913C51.0535 123.878 26.8015 141.239 7.27671 162.99C4.88001 165.66 2.55963 168.402 0.305402 171.2C-0.717397 172.468 1.07377 174.289 2.10675 173.01C20.3441 150.375 43.4207 131.975 69.2247 118.778C95.0796 105.555 123.652 97.5647 152.616 95.7692C167.551 94.8433 182.43 95.7027 197.212 97.9688C214.416 100.603 231.946 103.949 249.125 99.2834C279.748 90.9608 300.357 64.622 321.098 42.4113C332.155 30.5694 344.047 18.9781 358.493 11.3921C371.831 4.38409 387.671 0.409491 402.642 3.59122C406.351 4.37897 409.939 5.60154 413.363 7.24867C414.834 7.95458 416.126 5.74988 414.646 5.03885V5.03374Z" fill="#FDFEFF"/>
</g>
<defs>
<clipPath id="clip0_2_27">
<rect width="483" height="232" fill="white"/>
</clipPath>
</defs>
</svg>
