<svg width="493" height="290" viewBox="0 0 493 290" fill="none" xmlns="http://www.w3.org/2000/svg">
<g clip-path="url(#clip0_2_5)">
<path d="M490.262 11.709C474.387 1.3038 454.469 -2.41415 435.912 1.54826C418.706 5.22037 403.065 15.544 392.738 29.7996C380.683 46.4387 378.367 67.1522 372.667 86.3582C367.537 103.654 358.631 119.631 346.887 133.286C335.406 146.635 321.35 157.743 305.704 165.78C288.234 174.754 269.337 179.088 249.815 180.336C228.296 181.716 206.732 180.045 185.198 180.865C164.67 181.645 144.579 185.179 126.129 194.576C107.775 203.922 91.8042 217.123 74.6544 228.389C57.2811 239.797 37.2459 249.688 16.0475 249.877C10.8203 249.923 5.63876 249.311 0.569012 248.058C6.24815e-05 247.921 -0.238693 248.797 0.330257 248.934C19.8473 253.753 39.8621 248.277 57.4183 239.482C75.8075 230.268 91.7432 217.072 108.863 205.816C117.6 200.071 126.693 194.785 136.406 190.878C146.312 186.891 156.776 184.492 167.358 183.162C188.698 180.489 210.263 181.915 231.7 181.808C251.628 181.711 271.663 180.168 290.551 173.363C306.435 167.644 321.172 158.828 333.882 147.699C346.841 136.352 357.722 122.55 365.454 107.128C369.406 99.2437 372.408 90.9827 374.72 82.4722C377.493 72.2657 379.51 61.8503 382.852 51.8017C389.065 33.1305 401.287 17.6271 418.905 8.5869C436.633 -0.514434 457.791 -1.47193 476.384 5.60236C481.103 7.39512 485.583 9.72266 489.81 12.4882C490.298 12.8091 490.755 12.0247 490.267 11.7039L490.262 11.709Z" fill="#FFDDB8"/>
<path d="M490.531 15.3556C475.642 6.04549 457.446 3.1679 440.459 6.58535C439.153 6.85019 437.853 7.15068 436.567 7.48683C419.788 11.9025 404.864 22.7049 394.75 36.991C394.409 37.4698 394.079 37.9485 393.754 38.4324C382.781 54.7914 379.637 74.471 373.185 92.4598C369.843 101.79 365.357 110.647 359.84 118.715C355.573 124.949 350.727 130.699 345.403 135.919C344.397 136.907 343.376 137.875 342.34 138.822C331.073 149.13 318.063 157.249 303.89 163.111C302.016 163.885 300.131 164.613 298.226 165.296C282.6 170.914 265.923 173.394 248.722 174.438C230.882 175.523 213.229 175.614 196.008 177.076C192.656 177.361 189.323 177.692 186.006 178.095C169.857 180.04 154.333 183.891 139.819 191.057C136.888 192.508 133.993 194.092 131.143 195.824C114.882 205.715 100.628 218.819 85.0377 230.304C84.4535 230.732 83.8693 231.16 83.28 231.587C66.7805 243.521 47.3041 253.839 26.3139 254.216C21.1527 254.308 16.0322 253.722 11.0234 252.479C10.4595 252.337 10.2157 253.213 10.7846 253.355C30.1035 258.143 49.9253 252.357 66.8719 243.098C84.7024 233.309 99.617 219.466 115.441 207.405C123.503 201.294 131.874 195.605 140.815 191.087C150.005 186.447 159.707 183.111 169.73 180.957C187.667 177.102 206.265 176.501 225.202 176.068C227.417 176.017 229.627 175.971 231.842 175.925C247.351 175.599 262.931 175.166 277.907 172.447C281.94 171.713 285.933 170.817 289.88 169.712C302.61 166.152 314.644 160.819 325.673 153.816C328.208 152.207 330.682 150.511 333.1 148.718C344.072 140.605 353.79 130.592 361.578 118.939C363.163 116.555 364.661 114.11 366.068 111.615C370.3 104.108 373.597 96.1472 376.218 87.9066C378.514 80.6846 380.399 73.3149 382.603 66.042C383.421 63.3579 384.28 60.684 385.225 58.0306C391.712 39.7922 403.456 24.3042 420.403 14.8514C437.482 5.31208 458.228 3.3156 476.775 9.7176C481.392 11.3168 485.792 13.4559 489.947 16.0483C490.008 16.0839 490.064 16.1196 490.125 16.1552C490.607 16.4354 491.024 15.6612 490.536 15.3556H490.531Z" fill="#FFE0BC"/>
<path d="M490.805 19.0023C475.764 10.0486 457.608 8.17949 441.027 12.3558C439.752 12.6767 438.482 13.0383 437.228 13.4305C420.87 18.5846 406.667 29.876 396.766 44.1876C396.436 44.6663 396.111 45.1502 395.791 45.6289C385.021 61.9675 381.09 81.2346 373.714 98.5664C369.929 107.469 365.052 115.847 359.144 123.242C354.578 128.957 349.457 134.065 343.93 138.552C342.884 139.403 341.827 140.228 340.76 141.032C329.122 149.772 316.107 156.083 302.087 160.447C300.233 161.023 298.368 161.558 296.494 162.057C281.087 166.172 264.643 167.562 247.646 168.545C229.978 169.559 212.721 170.72 196.308 173.516C193.113 174.061 189.958 174.657 186.829 175.324C171.604 178.563 157.34 183.718 144.087 191.795C141.409 193.43 138.768 195.187 136.167 197.077C121.334 207.854 108.299 221.473 93.5821 233.451C93.0334 233.9 92.4797 234.343 91.9209 234.786C76.3002 247.244 57.3776 257.995 36.5957 258.55C31.5005 258.683 26.4409 258.133 21.4931 256.9C20.9292 256.757 20.6854 257.633 21.2543 257.776C40.3751 262.538 60.0039 256.437 76.3409 246.714C93.6125 236.355 107.471 221.824 122.03 209C129.406 202.501 137.066 196.42 145.23 191.306C153.703 185.999 162.628 181.757 172.107 178.762C188.861 173.47 206.783 171.357 225.446 170.348C227.626 170.231 229.81 170.134 231.989 170.053C247.31 169.472 262.707 169.584 277.434 167.878C281.402 167.42 285.333 166.829 289.22 166.065C301.757 163.6 313.664 159.637 324.794 153.954C327.354 152.65 329.864 151.249 332.323 149.742C343.519 142.937 353.628 134.019 361.918 123.028C363.594 120.787 365.19 118.475 366.688 116.102C371.199 108.966 374.796 101.306 377.717 93.3358C380.282 86.3481 382.426 79.177 384.808 72.0824C385.692 69.4594 386.606 66.8467 387.597 64.2492C394.358 46.4438 405.626 30.9659 421.907 21.1006C438.34 11.1233 458.675 8.08781 477.171 13.8124C481.753 15.2436 486.122 17.2401 490.267 19.7051C490.328 19.7408 490.389 19.7713 490.445 19.8019C490.917 20.0464 491.298 19.2773 490.816 18.987L490.805 19.0023Z" fill="#FFE3C0"/>
<path d="M491.075 22.6438C475.911 14.0111 457.766 13.1911 441.586 18.1212C440.342 18.5032 439.102 18.9208 437.883 19.369C421.952 25.2617 408.465 37.0369 398.773 51.379C398.448 51.8577 398.128 52.3416 397.818 52.8254C387.252 69.1386 382.537 88.0033 374.232 104.673C370.01 113.148 364.732 121.047 358.438 127.77C353.567 132.965 348.177 137.427 342.452 141.19C341.37 141.903 340.278 142.586 339.17 143.248C327.166 150.424 314.136 154.916 300.273 157.784C298.439 158.161 296.601 158.507 294.746 158.823C279.557 161.435 263.348 161.741 246.548 162.653C229.053 163.6 212.193 165.826 196.587 169.956C193.55 170.761 190.568 171.622 187.631 172.554C173.337 177.091 160.327 183.539 148.333 192.534C145.91 194.357 143.523 196.282 141.176 198.325C127.77 209.983 115.959 224.121 102.106 236.599C101.588 237.063 101.065 237.526 100.542 237.989C85.7946 250.972 67.4358 262.151 46.8571 262.895C41.828 263.073 36.8293 262.553 31.9425 261.331C31.3786 261.188 31.1348 262.064 31.7037 262.207C50.6264 266.939 70.0875 260.557 85.7844 250.34C102.523 239.446 115.319 224.223 128.598 210.599C135.293 203.728 142.243 197.224 149.624 191.53C157.376 185.546 165.529 180.422 174.464 176.572C190.029 169.87 207.281 166.213 225.67 164.634C227.819 164.45 229.967 164.303 232.121 164.186C247.249 163.355 262.464 164.007 276.951 163.32C280.853 163.136 284.719 162.851 288.544 162.429C300.888 161.058 312.673 158.461 323.9 154.101C326.486 153.103 329.031 151.993 331.53 150.781C342.945 145.28 353.47 137.483 362.243 127.139C364.021 125.045 365.697 122.86 367.293 120.609C372.083 113.851 375.974 106.491 379.205 98.7905C382.04 92.0371 384.447 85.0646 387.008 78.1533C387.958 75.5966 388.933 73.0399 389.964 70.4984C397 53.1208 407.785 37.6582 423.4 27.3855C439.183 16.9701 459.107 12.8906 477.552 17.9429C482.098 19.2009 486.442 21.0599 490.572 23.3976C490.633 23.4333 490.694 23.4587 490.75 23.4842C491.212 23.6879 491.557 22.9341 491.075 22.6591V22.6438Z" fill="#FFE7C5"/>
<path d="M491.344 26.2905C476.033 18.004 457.923 18.2078 442.145 23.8865C440.926 24.3296 439.722 24.8033 438.533 25.3075C423.024 31.9438 410.259 44.2028 400.779 58.5755C400.464 59.0543 400.149 59.5381 399.845 60.0219C389.482 76.3147 384 94.772 374.75 110.78C370.097 118.832 364.417 126.247 357.727 132.298C352.551 136.978 346.892 140.793 340.963 143.823C339.841 144.394 338.713 144.939 337.575 145.458C325.206 151.071 312.165 153.745 298.455 155.12C296.641 155.303 294.823 155.456 292.994 155.583C278.023 156.689 262.047 155.914 245.451 156.76C228.123 157.636 211.665 160.936 196.867 166.396C193.986 167.46 191.177 168.586 188.434 169.788C175.069 175.62 163.309 183.366 152.585 193.277C150.416 195.284 148.288 197.382 146.185 199.577C134.206 212.122 123.62 226.774 110.635 239.747C110.153 240.23 109.66 240.709 109.167 241.188C95.294 254.695 77.494 266.307 57.1286 267.229C52.1656 267.453 47.2279 266.959 42.4071 265.752C41.8432 265.609 41.5994 266.485 42.1683 266.628C60.8878 271.329 80.166 264.642 95.2483 253.956C111.433 242.492 123.193 226.617 135.181 212.188C141.196 204.951 147.424 198.009 154.033 191.739C161.069 185.067 168.445 179.083 176.837 174.367C191.218 166.284 207.794 161.053 225.909 158.899C228.027 158.649 230.145 158.451 232.264 158.298C247.204 157.218 262.23 158.41 276.474 158.736C280.314 158.823 284.109 158.853 287.873 158.761C300.024 158.486 311.683 157.259 323.016 154.218C325.627 153.521 328.203 152.706 330.753 151.784C342.376 147.562 353.308 140.895 362.578 131.213C364.448 129.262 366.221 127.21 367.907 125.086C372.972 118.704 377.168 111.645 380.704 104.21C383.807 97.6904 386.474 90.9217 389.212 84.1835C390.228 81.6879 391.26 79.1974 392.337 76.7069C399.647 59.7622 409.954 44.3098 424.899 33.6245C440.032 22.7661 459.549 17.6526 477.943 22.0327C482.449 23.1226 486.777 24.8339 490.887 27.0493C490.948 27.0799 491.009 27.1054 491.065 27.1308C491.517 27.2989 491.827 26.5502 491.344 26.2905Z" fill="#FFEAC9"/>
<path d="M491.618 29.932C476.16 22.0021 458.081 23.2143 442.714 29.6519C441.525 30.151 440.352 30.6858 439.199 31.246C424.116 38.6208 412.067 51.3637 402.801 65.7669C402.491 66.2508 402.186 66.7295 401.882 67.2185C391.727 83.4909 385.489 101.551 375.273 116.886C370.193 124.516 364.108 131.447 357.026 136.826C351.55 140.987 345.617 144.16 339.485 146.462C338.327 146.895 337.159 147.302 335.99 147.674C323.25 151.718 310.205 152.584 296.651 152.456C294.858 152.441 293.06 152.4 291.257 152.349C276.504 151.952 260.762 150.093 244.369 150.867C227.214 151.677 211.151 156.042 197.161 162.841C194.439 164.16 191.807 165.556 189.252 167.022C176.811 174.153 166.311 183.198 156.847 194.021C154.932 196.216 153.058 198.482 151.209 200.835C140.658 214.261 131.29 229.428 119.175 242.899C118.723 243.398 118.265 243.897 117.803 244.397C104.809 258.428 87.5624 270.468 67.4053 271.578C62.5083 271.843 57.6316 271.385 52.8717 270.183C52.3078 270.04 52.064 270.916 52.6329 271.059C71.1543 275.734 90.2395 268.726 104.712 257.583C120.338 245.548 131.072 229.021 141.77 213.787C147.109 206.183 152.606 198.798 158.452 191.963C164.757 184.589 171.381 177.779 179.219 172.177C192.422 162.739 208.317 155.914 226.158 153.185C228.245 152.864 230.333 152.619 232.421 152.431C247.168 151.102 262.012 152.833 276.012 154.178C279.786 154.539 283.515 154.875 287.218 155.125C299.176 155.95 310.713 156.083 322.142 154.366C324.779 153.974 327.39 153.455 329.981 152.818C341.827 149.905 353.145 144.333 362.924 135.318C364.89 133.505 366.754 131.59 368.532 129.588C373.876 123.584 378.367 116.825 382.207 109.659C385.58 103.369 388.511 96.8042 391.422 90.2494C392.504 87.82 393.591 85.3855 394.714 82.951C402.298 66.4392 412.128 50.997 426.402 39.9043C440.885 28.6078 459.991 22.4554 478.339 26.1581C482.81 27.0799 487.112 28.6384 491.207 30.7316C491.268 30.7622 491.329 30.7877 491.385 30.8029C491.832 30.9303 492.101 30.1918 491.623 29.9473L491.618 29.932Z" fill="#FEEDCD"/>
<path d="M491.887 33.5787C476.277 26.0104 458.238 28.2309 443.273 35.4173C442.115 35.9775 440.972 36.5683 439.849 37.1846C425.188 45.3029 413.86 58.5297 404.808 72.9584C404.503 73.4422 404.203 73.9261 403.909 74.4099C393.957 90.6568 386.972 108.325 375.791 122.983C370.29 130.194 363.787 136.637 356.32 141.343C350.539 144.985 344.336 147.516 338.002 149.085C336.803 149.38 335.604 149.645 334.4 149.874C321.294 152.354 308.234 151.402 294.838 149.777C293.065 149.563 291.292 149.334 289.509 149.095C274.975 147.195 259.466 144.246 243.277 144.954C226.295 145.693 210.628 151.127 197.446 159.261C194.88 160.839 192.422 162.5 190.055 164.237C178.544 172.661 169.293 183.005 161.094 194.739C159.433 197.117 157.812 199.562 156.217 202.063C147.089 216.374 138.951 232.056 127.704 246.021C127.282 246.541 126.861 247.055 126.429 247.57C114.308 262.126 97.6206 274.599 77.6718 275.892C72.8408 276.203 68.025 275.775 63.3261 274.583C62.7623 274.441 62.5184 275.317 63.0874 275.459C81.4106 280.104 100.303 272.78 114.161 261.178C129.228 248.568 138.941 231.404 148.343 215.356C153.012 207.39 157.762 199.542 162.852 192.152C168.414 184.074 174.307 176.455 181.586 169.951C193.636 159.184 208.825 150.735 226.386 147.434C228.438 147.047 230.496 146.752 232.558 146.528C247.117 144.949 261.778 147.221 275.534 149.579C279.243 150.215 282.905 150.857 286.547 151.448C298.313 153.368 309.722 154.87 321.253 154.473C323.915 154.387 326.562 154.168 329.193 153.811C341.268 152.227 352.967 147.725 363.254 139.377C365.311 137.707 367.267 135.919 369.142 134.045C374.765 128.417 379.55 121.959 383.701 115.058C387.343 109.002 390.538 102.636 393.622 96.2592C394.77 93.896 395.913 91.5176 397.081 89.1442C404.94 73.0653 414.292 57.6384 427.896 46.128C441.728 34.3936 460.428 27.197 478.725 30.2325C483.16 30.9812 487.437 32.3971 491.517 34.3681C491.578 34.3987 491.639 34.419 491.694 34.4292C492.131 34.5209 492.365 33.7926 491.887 33.5583V33.5787Z" fill="#FEF0D1"/>
<path d="M492.157 37.2202C476.394 30.0135 458.396 33.2425 443.837 41.1826C442.709 41.7989 441.596 42.4508 440.509 43.1231C426.275 51.98 415.663 65.6905 406.819 80.1498C406.525 80.6336 406.23 81.1175 405.941 81.6013C396.192 97.8279 388.471 115.114 376.314 129.084C370.401 135.878 363.478 141.827 355.619 145.866C349.533 148.988 343.061 150.877 336.524 151.718C335.289 151.876 334.05 151.998 332.81 152.079C319.338 152.996 306.268 150.225 293.024 147.109C291.272 146.696 289.519 146.273 287.767 145.856C273.451 142.453 258.176 138.42 242.19 139.061C225.38 139.734 210.105 146.238 197.735 155.701C195.328 157.539 193.047 159.464 190.867 161.466C180.286 171.189 172.29 182.826 165.356 195.478C163.954 198.044 162.582 200.657 161.236 203.311C153.535 218.503 146.621 234.704 136.238 249.169C135.852 249.709 135.461 250.243 135.06 250.773C123.813 265.849 107.684 278.754 87.9434 280.231C83.1784 280.588 78.4236 280.186 73.7857 279.009C73.2218 278.867 72.978 279.743 73.5469 279.885C91.672 284.505 110.346 276.834 123.62 264.799C138.097 251.578 146.83 233.813 154.922 216.95C158.92 208.623 162.913 200.311 167.256 192.371C172.067 183.58 177.248 175.171 183.954 167.756C194.87 155.675 209.328 145.586 226.62 141.715C228.642 141.262 230.668 140.91 232.695 140.656C247.061 138.827 261.539 141.639 275.052 145.015C278.694 145.927 282.296 146.879 285.872 147.806C297.444 150.821 308.731 153.689 320.364 154.616C323.052 154.83 325.734 154.911 328.406 154.845C340.699 154.565 352.774 151.137 363.584 143.482C365.733 141.949 367.785 140.299 369.751 138.552C375.654 133.296 380.739 127.139 385.194 120.507C389.106 114.686 392.56 108.518 395.826 102.325C397.041 100.023 398.239 97.7056 399.453 95.3883C407.586 79.7424 416.461 64.3256 429.394 52.4078C442.582 40.2353 460.87 31.9998 479.112 34.3579C483.511 34.9385 487.768 36.2016 491.827 38.0555C491.887 38.0861 491.948 38.1013 492.004 38.1064C492.431 38.1624 492.629 37.4392 492.152 37.2253L492.157 37.2202Z" fill="#FEF4D6"/>
<path d="M492.431 40.8669C476.506 34.0472 458.558 38.2541 444.401 46.9531C443.298 47.6305 442.221 48.3384 441.17 49.0667C427.357 58.6672 417.467 72.8616 408.836 87.3463C408.547 87.8302 408.262 88.314 407.972 88.8029C398.427 105.004 389.979 121.928 376.833 135.196C370.508 141.583 363.158 147.032 354.913 150.399C348.527 153.006 341.781 154.249 335.04 154.356C333.765 154.376 332.49 154.356 331.22 154.295C317.383 153.643 304.297 149.059 291.211 144.445C289.479 143.834 287.751 143.223 286.019 142.616C271.917 137.712 256.881 132.593 241.098 133.164C224.461 133.765 209.582 141.338 198.02 152.135C195.77 154.234 193.661 156.424 191.675 158.69C182.018 169.707 175.282 182.648 169.608 196.211C168.46 198.961 167.347 201.747 166.25 204.558C159.976 220.632 154.287 237.353 144.772 252.311C144.417 252.866 144.061 253.421 143.695 253.972C133.327 269.572 117.757 282.91 98.2251 284.571C93.5262 284.968 88.8324 284.601 84.2604 283.43C83.6966 283.287 83.4527 284.163 84.0217 284.306C101.949 288.895 120.429 280.909 133.094 268.416C147.013 254.623 154.764 236.227 161.521 218.539C164.868 209.85 168.069 201.075 171.681 192.585C175.724 183.081 180.235 173.883 186.341 165.556C196.156 152.166 209.856 140.437 226.874 135.99C228.865 135.471 230.862 135.068 232.858 134.778C247.036 132.7 261.326 136.051 274.594 140.442C278.171 141.628 281.706 142.886 285.222 144.155C296.601 148.265 307.761 152.502 319.496 154.748C322.208 155.268 324.926 155.645 327.644 155.864C340.156 156.887 352.627 154.56 363.94 147.572C366.18 146.182 368.329 144.664 370.391 143.039C376.574 138.16 381.953 132.303 386.718 125.942C390.899 120.355 394.617 114.385 398.057 108.371C399.337 106.135 400.596 103.878 401.846 101.612C410.253 86.3939 418.645 70.9924 430.918 58.6672C443.456 46.0516 461.332 36.7771 479.528 38.4629C483.892 38.8755 488.128 39.9807 492.167 41.7174C492.233 41.7429 492.289 41.7582 492.345 41.7582C492.761 41.7785 492.924 41.0655 492.451 40.8618L492.431 40.8669Z" fill="#FEF7DA"/>
<path d="M94.4711 288.737C112.2 293.295 130.488 284.999 142.537 272.042C155.897 257.679 162.628 238.631 168.084 220.143C173.773 200.871 178.33 180.799 188.698 163.366C197.436 148.662 210.354 135.293 227.097 130.276C242.982 125.514 259.248 129.711 274.107 135.883C288.991 142.066 303.113 150.225 318.597 154.891C333.953 159.52 349.879 159.362 364.255 151.672C379.728 143.391 391.133 129.12 400.236 114.426C410.589 97.726 419.057 79.5743 432.392 64.9317C444.279 51.8781 461.748 41.5646 479.894 42.5781C484.222 42.8175 488.433 43.7801 492.451 45.3946C492.995 45.6136 493.229 44.7325 492.69 44.5186C476.617 38.0555 458.706 43.2759 444.949 52.7236C429.359 63.4343 419.28 79.9104 409.989 96.0046C400.647 112.185 391.478 128.748 377.341 141.308C370.605 147.292 362.832 152.237 354.197 154.931C346.241 157.412 337.829 157.794 329.62 156.515C313.537 154.01 298.876 146.136 284.262 139.387C270.378 132.98 255.575 126.772 239.995 127.281C223.531 127.816 209.048 136.459 198.294 148.586C186.052 162.393 179.168 179.501 173.85 196.965C167.84 216.705 163.446 237.312 153.291 255.474C143.868 272.327 128.481 287.015 108.481 288.92C103.849 289.363 99.2106 289.027 94.7047 287.866C94.1409 287.718 93.897 288.599 94.466 288.742L94.4711 288.737Z" fill="#FEFADE"/>
</g>
<defs>
<clipPath id="clip0_2_5">
<rect width="493" height="290" fill="white"/>
</clipPath>
</defs>
</svg>
