<?xml version="1.0" encoding="UTF-8"?>
<svg id="Layer_2" data-name="Layer 2" xmlns="http://www.w3.org/2000/svg" xmlns:xlink="http://www.w3.org/1999/xlink" viewBox="0 0 930.47 1080.21">
  <defs>
    <style>
      .cls-1 {
        fill: url(#linear-gradient);
        stroke-width: 0px;
      }
    </style>
    <linearGradient id="linear-gradient" x1="74.67" y1="540.11" x2="1024.5" y2="540.11" gradientUnits="userSpaceOnUse">
      <stop offset=".02" stop-color="#e2969c" stop-opacity="0"/>
      <stop offset=".07" stop-color="#e2969c" stop-opacity="0"/>
      <stop offset=".48" stop-color="#e2969c" stop-opacity=".5"/>
      <stop offset=".86" stop-color="#a0d4ac"/>
    </linearGradient>
  </defs>
  <g id="Layer_1-2" data-name="Layer 1">
    <path class="cls-1" d="m194.47,0C113.05,1.94,41.67,48.29,13.14,117.55c-29.74,72.2-.52,139.23,5.33,152,28.75,73.54,67.56,113.61,96,136,16.78,13.21,47.86,31.21,109.33,66.67,33.19,19.14,60.86,34.68,80,45.33,35.71,32.27,82.06,84.39,77.33,144-10.5,132.56-264.33,185.99-256,282.67,2.05,23.82,20.74,58.69,109.33,96,45.33,13.33,90.67,26.67,136,40,186.67-.82,373.33-1.64,560-2.45V0c-245.34,0-490.67,0-736.01,0Z"/>
  </g>
</svg>